<?xml version="1.0" standalone="no"?><!DOCTYPE svg PUBLIC "-//W3C//DTD SVG 1.1//EN" "http://www.w3.org/Graphics/SVG/1.1/DTD/svg11.dtd"><svg t="1617936601568" class="icon" viewBox="0 0 1024 1024" version="1.1" xmlns="http://www.w3.org/2000/svg" p-id="1746" xmlns:xlink="http://www.w3.org/1999/xlink" width="200" height="200"><defs><style type="text/css"></style></defs><path d="M348.7 916h263.1s15.1-169.8 184.9-268.8l-41.8-71.1s-132.1 49.3-198.1 174c2-90.4 63-259.9 63-259.9l-108.4-50.3s-83.8 224.8-85.8 249.8c-70.3-123.5-154.3-180.6-154.3-180.6l-56 81.1c0 0.2 110.3 97.3 133.4 325.8z" fill="#72C053" p-id="1747"></path><path d="M465.6 916l150.7-0.3s7.8-88.2 70.2-184.6c7.3-10 48.4-76.4 121.6-127.7-3.9-13.5-27.8-26.7-34.6-33.6-71.9 41.8-195 210.6-195 210.6s-44-3.9-31.7-74.1c1-42.5 26.2-153 26.2-153l38.3-130.4-33.4-11.3c-0.1-0.3-139.6 294.2-112.3 504.4z" fill="#3BAB70" p-id="1748"></path><path d="M960.3 396.5c0-73-59.2-132.1-132.1-132.1-29 0-55.8 9.4-77.6 25.2-8.9-64.3-64.1-113.9-130.9-113.9-50.6 0-94.5 28.4-116.7 70.2-13-4.3-27-6.6-41.5-6.6-22.2 0-43.1 5.5-61.4 15.1-20.5-46.4-66.9-78.7-120.9-78.7-73 0-132.1 59.2-132.1 132.1 0 11.2 1.4 22.1 4 32.5-57.1 14.6-99.4 66.4-99.4 128 0 73 59.2 132.1 132.1 132.1 36.6 0 69.8-14.9 93.7-39 15.9 6.8 33.4 10.5 51.8 10.5 50.3 0 94.1-28.1 116.4-69.5 5.2 0.6 10.4 0.9 15.8 0.9 18.7 0 36.6-3.9 52.7-10.9 14.9 34.2 43.8 61 79.6 72.8-0.1 2.2-0.2 4.5-0.2 6.7 0 73 59.2 132.1 132.1 132.1s132.2-58.9 132.2-131.9c0-15.9-2.8-31.2-8-45.3 62.6-10.3 110.4-64.7 110.4-130.3z" fill="#A4CE4E" p-id="1749"></path><path d="M547.6 199.7c66.8 0 122 49.5 130.9 113.9 20.3-14.8 45.1-23.9 71.8-25.1-9.4-63.8-64.3-112.8-130.7-112.8-28.3 0-54.5 8.9-76 24.1 1.3 0 2.7-0.1 4-0.1zM960.3 396.5c0-73-59.2-132.1-132.1-132.1-28.3 0-54.5 8.9-76 24.1 1.3 0 2.7-0.1 4-0.1 73 0 132.1 59.2 132.1 132.1 0 65.6-47.8 120-110.4 130.4 5.2 14.1 8 29.4 8 45.3 0 44.7-22.2 84.2-56.1 108.1 71.1-2.1 128.1-60.4 128.1-132.1 0-15.9-2.8-31.2-8-45.3 62.6-10.4 110.4-64.8 110.4-130.4z" fill="#74C15B" p-id="1750"></path><path d="M250.4 235.6c-12.9 7.2-23.5 18-30.3 31.1-4.1 8 7.9 15.1 12.1 7.1 5.8-11.1 14.3-20 25.3-26.1 7.9-4.4 0.8-16.5-7.1-12.1zM206.3 298c-9 0-9 14 0 14s9.1-14 0-14z" fill="#FFFFFF" p-id="1751"></path></svg>