<?xml version="1.0" standalone="no"?><!DOCTYPE svg PUBLIC "-//W3C//DTD SVG 1.1//EN" "http://www.w3.org/Graphics/SVG/1.1/DTD/svg11.dtd"><svg t="1617958371593" class="icon" viewBox="0 0 1024 1024" version="1.1" xmlns="http://www.w3.org/2000/svg" p-id="2035" xmlns:xlink="http://www.w3.org/1999/xlink" width="200" height="200"><defs><style type="text/css"></style></defs><path d="M692.9 679.1c-16.6-42.1-38.2-82.2-51.7-125.5-9.4-30.2-23-80 8.3-102.1 7.8-5.5 16.7-8.7 25.8-11.2 9.9-2.7 11.4-13 7.5-20-0.1-0.3-0.2-0.7-0.3-1 1.6-5.8-0.1-12.7-6-15.3-26.4-11.6-53.9-18.9-82.6-21.3-29.8-2.5-59.4 1.5-88.6 7.6-49.1 10.2-98.8 22.3-143.8 45.2-24.4 12.4-47.2 28.6-66 48.6-2.4 2.5-3.5 5.4-3.7 8.1-0.3 0.6-0.5 1.3-0.7 1.9-1.8 6.5 2.2 15.4 9.4 16.6 37.4 6.5 71.7 24.6 98 52.1C425.5 591.1 442 629 445 668c1.5 20.2-0.4 40.2-5.7 59.7-5.7 21.2-14.3 41.4-21.2 62.2-6.8 20.5-12.3 42.1-11.5 63.9 0.8 20.7 7.1 40.9 18.7 58.1 49 73.2 169.3 83.7 230.9 21.2 15-15.2 27-33.5 36.8-52.4 10.6-20.4 18.8-42.2 22.1-65 6.6-46.8-5.1-93.3-22.2-136.6z" fill="#FFD3BC" p-id="2036"></path><path d="M715 784c-3.2 22.8-11.5 44.6-22.1 65-9.8 18.9-21.8 37.2-36.8 52.4-61.6 62.5-181.8 52-230.9-21.2-9.5-14.1-15.4-30.3-17.7-47.1-0.8 6.9-1.2 13.8-1 20.7 0.8 20.7 7.1 40.9 18.7 58.1 49 73.2 169.3 83.7 230.9 21.2 15-15.2 27-33.5 36.8-52.4 10.6-20.4 18.8-42.2 22.1-65 2.1-14.5 2.3-29 1.3-43.4-0.3 3.9-0.7 7.8-1.3 11.7z" fill="#FFB19A" p-id="2037"></path><path d="M82.307531 436.743911a223.2 391.6 75.016 1 0 756.569684-202.49581 223.2 391.6 75.016 1 0-756.569684 202.49581Z" fill="#8A61A3" p-id="2038"></path><path d="M843.6 247c-3.1-11.6-7.8-22.5-13.8-32.8C856 332.2 713.7 470.6 508 525.7 319.4 576.2 142 539.3 85.8 444c0.4 1.8 0.8 3.6 1.3 5.4C119 568.6 314.1 619.8 523 563.9 731.9 508 875.4 366.2 843.6 247z" fill="#6C4188" p-id="2039"></path><path d="M287.5 273.9c-0.5-11.8-9.6-21.7-21.7-21.7-11.4 0-22.3 10-21.7 21.7 0.5 11.8 9.6 21.7 21.7 21.7 11.3 0 22.2-10 21.7-21.7zM279.3 364c-0.5-11.8-9.6-21.7-21.7-21.7-11.4 0-22.3 10-21.7 21.7 0.5 11.8 9.6 21.7 21.7 21.7 11.3 0.1 22.2-9.9 21.7-21.7zM379 312.1c-0.5-11.8-9.6-21.7-21.7-21.7-11.4 0-22.3 10-21.7 21.7 0.5 11.8 9.6 21.7 21.7 21.7 11.4 0.1 22.3-9.9 21.7-21.7z" fill="#6C4188" p-id="2040"></path><path d="M372.2 167.8c-0.2-0.7-0.6-1.4-1.2-1.9-0.5-0.6-1.2-1-1.9-1.2-0.7-0.4-1.5-0.5-2.3-0.5-0.5 0.1-1 0.1-1.6 0.2-1 0.3-1.9 0.8-2.6 1.5l-0.9 1.2c-0.5 0.9-0.8 1.9-0.8 3v1.4c0 0.8 0.1 1.6 0.5 2.3 0.2 0.7 0.6 1.4 1.2 1.9 0.5 0.6 1.2 1 1.9 1.2 0.7 0.4 1.5 0.5 2.3 0.5 0.5-0.1 1-0.1 1.6-0.2 1-0.3 1.9-0.8 2.6-1.5l0.9-1.2c0.5-0.9 0.8-1.9 0.8-3V170c0.1-0.8-0.1-1.5-0.5-2.2zM433.9 145.8c-16.5 1.7-32.1 6.1-47.1 13-6.9 3.2-0.9 13.3 5.9 10.1 13-6 26.9-9.9 41.2-11.4 7.4-0.8 7.5-12.5 0-11.7z" fill="#FFFFFF" p-id="2041"></path></svg>