<?xml version="1.0" standalone="no"?><!DOCTYPE svg PUBLIC "-//W3C//DTD SVG 1.1//EN" "http://www.w3.org/Graphics/SVG/1.1/DTD/svg11.dtd"><svg t="1617958389290" class="icon" viewBox="0 0 1024 1024" version="1.1" xmlns="http://www.w3.org/2000/svg" p-id="2328" xmlns:xlink="http://www.w3.org/1999/xlink" width="200" height="200"><defs><style type="text/css"></style></defs><path d="M606.3 244.8c-21.7-23.4 32.7-88.6 32.7-88.6-42.6-6.5-65.5 17.1-77.6 40.2C565 142.5 521 88.2 521 88.2 490.9 114 491.1 215 491.6 232.9c-2.3-17.2-40.6-62.7-40.6-62.7-25-39-77-16-77-16 39-5 42.7 90.6 42.7 90.6C257.6 282.7 140 413.5 140 568.7c0 184.7 166.6 334.8 371.5 334.8S883 753.3 883 568.6c0-155.2-117.6-285.9-276.7-323.8z" fill="#FF5677" p-id="2329"></path><path d="M572.9 856.5c-9.4 1.6-19.2 0-27.3-5-0.1 0-0.1-0.1-0.2-0.1-17.9-11-27.8-21.4-33.6-29.3-0.2-0.2-0.2-0.4-0.4-0.6-0.2 0.2-0.2 0.3-0.4 0.5-5.8 7.9-15.7 18.3-33.6 29.3-0.1 0-0.2 0.1-0.2 0.1-8.2 5-18 6.6-27.3 5-152.4-25.7-268.1-144.9-268.1-287.8 0-139.5 110.4-256.5 257.5-285.8 9.5-1.9 19.2-0.4 27.8 4.1 3.5 1.9 7 3.9 10.5 5.9 17.9 11 27.8 21.4 33.6 29.3 0.2 0.2 0.2 0.4 0.4 0.6 0.2-0.2 0.2-0.3 0.4-0.5 5.8-7.9 15.7-18.3 33.6-29.3 3.5-2.1 7-4.1 10.5-6 8.5-4.5 18.3-6 27.8-4.1 147.2 29.3 257.4 146.3 257.4 285.8-0.1 143-115.8 262.2-268.4 287.9z" fill="#D60A51" p-id="2330"></path><path d="M414.7 397.6c-0.6-14.1-11.4-26-26-26-13.6 0-26.6 12-26 26 0.6 14.1 11.4 26 26 26 13.6 0 26.6-12 26-26zM309.8 456.2c-0.6-14.1-11.4-26-26-26-13.6 0-26.6 12-26 26 0.6 14.1 11.4 26 26 26 13.6 0 26.6-11.9 26-26zM356 678.4c-0.6-14.1-11.4-26-26-26-13.6 0-26.6 12-26 26 0.6 14.1 11.4 26 26 26 13.6 0 26.6-11.9 26-26zM254.7 619.8c-0.6-14.1-11.4-26-26-26-13.6 0-26.6 12-26 26 0.6 14.1 11.4 26 26 26 13.6 0 26.6-12 26-26zM389.8 550.4c-0.6-14.1-11.4-26-26-26-13.6 0-26.6 12-26 26 0.6 14.1 11.4 26 26 26 13.6 0 26.6-11.9 26-26zM299.1 543.3c-0.6-14.1-11.4-26-26-26-13.6 0-26.6 12-26 26 0.6 14.1 11.4 26 26 26 13.6 0 26.6-11.9 26-26zM453.8 667.8c-0.6-14.1-11.4-26-26-26-13.6 0-26.6 12-26 26 0.6 14.1 11.4 26 26 26 13.6 0 26.6-12 26-26zM476.9 488.2c-0.6-14.1-11.4-26-26-26-13.6 0-26.6 12-26 26 0.6 14.1 11.4 26 26 26 13.6 0 26.6-11.9 26-26zM446.7 797.6c-0.6-14.1-11.4-26-26-26-13.6 0-26.6 12-26 26 0.6 14.1 11.4 26 26 26 13.6 0 26.6-12 26-26zM356 762l-0.9-6.9c-1.2-4.4-3.5-8.2-6.7-11.5l-5.3-4.1c-4.1-2.4-8.4-3.5-13.1-3.5h-1.8c-3.6-0.1-6.9 0.6-10 2.2-3.2 1-6 2.8-8.4 5.4-2.5 2.4-4.3 5.1-5.4 8.4-1.6 3.1-2.4 6.4-2.2 10l0.9 6.9c1.2 4.4 3.5 8.2 6.7 11.5l5.3 4.1c4.1 2.4 8.4 3.5 13.1 3.5h1.8c3.6 0.1 6.9-0.6 10-2.2 3.2-1 6-2.8 8.4-5.4 2.5-2.4 4.3-5.1 5.4-8.4 1.6-3.1 2.3-6.4 2.2-10zM656.4 770.9c-0.6-14.1-11.4-26-26-26-13.6 0-26.6 12-26 26 0.6 14.1 11.4 26 26 26 13.6 0 26.7-12 26-26zM598.5 662.6c-0.8-3.4-2.4-6.3-4.7-8.8-1.8-2.8-4.3-5.1-7.3-6.7-2.1-0.9-4.1-1.7-6.2-2.6-4.6-1.2-9.2-1.2-13.8 0-2.1 0.9-4.1 1.7-6.2 2.6-3.9 2.3-7 5.4-9.3 9.3-0.6 1.2-1.2 2.4-1.8 3.5-1.9 3-2.9 6.2-3.1 9.7-0.8 3.5-0.6 6.9 0.5 10.4 0.8 3.4 2.4 6.3 4.7 8.8 1.8 2.8 4.3 5.1 7.3 6.7 2.1 0.9 4.1 1.7 6.2 2.6 4.6 1.2 9.2 1.2 13.8 0 2.1-0.9 4.1-1.7 6.2-2.6 3.9-2.3 7-5.4 9.3-9.3l1.8-3.5c1.9-3 2.9-6.2 3.1-9.7 0.7-3.5 0.5-7-0.5-10.4zM750.7 660.7c-0.6-14.1-11.4-26-26-26-10.8 0-21.3 7.6-24.8 17.8-3.1-11.1-12.7-19.6-25-19.6-13.6 0-26.6 12-26 26 0.6 14.1 11.4 26 26 26 10.8 0 21.3-7.6 24.8-17.8 3.1 11.1 12.7 19.6 25 19.6 13.6 0 26.6-12 26-26zM690.2 564.7c-0.6-14.1-11.4-26-26-26-13.6 0-26.6 12-26 26 0.6 14.1 11.4 26 26 26 13.6 0 26.7-12 26-26zM619.1 584.2c-0.6-14.1-11.4-26-26-26-13.6 0-26.6 12-26 26 0.6 14.1 11.4 26 26 26 13.6 0 26.6-11.9 26-26zM606.7 410c-0.6-14.1-11.4-26-26-26-13.6 0-26.6 12-26 26 0.6 14.1 11.4 26 26 26 13.6 0 26.6-12 26-26zM705.3 381.8c-1.2-4.4-3.5-8.2-6.7-11.5l-1.8-1.8c-2.4-2.5-5.1-4.3-8.4-5.4-3.1-1.6-6.4-2.4-10-2.2-3.6-0.1-6.9 0.6-10 2.2-3.2 1-6 2.8-8.4 5.4l-4.1 5.3c-2.4 4.1-3.5 8.4-3.5 13.1l0.9 6.9c1.2 4.4 3.5 8.2 6.7 11.5l1.8 1.8c2.4 2.5 5.1 4.3 8.4 5.4 3.1 1.6 6.4 2.4 10 2.2 3.6 0.1 6.9-0.6 10-2.2 3.2-1 6-2.8 8.4-5.4l4.1-5.3c2.4-4.1 3.5-8.4 3.5-13.1l-0.9-6.9zM711.6 481.1c-0.6-14.1-11.4-26-26-26-13.6 0-26.6 12-26 26 0.6 14.1 11.4 26 26 26 13.6 0 26.6-11.9 26-26zM796.9 495.3c-0.6-14.1-11.4-26-26-26-13.6 0-26.6 12-26 26 0.6 14.1 11.4 26 26 26 13.6 0 26.6-11.9 26-26zM827.1 593.1c-0.6-14.1-11.4-26-26-26-13.6 0-26.6 12-26 26 0.6 14.1 11.4 26 26 26 13.6 0 26.6-11.9 26-26z" fill="#AF0B46" p-id="2331"></path><path d="M344.2 334.2c-12.9 0-12.9 20 0 20s12.9-20 0-20zM428.1 315.2c-1.4-5.3-6.6-7.6-11.7-6.6-16.4 3.2-32.4 8-47.8 14.5-4.7 2-8.1 6.3-6.6 11.7 1.2 4.5 6.9 8.6 11.7 6.6 15.4-6.5 31.4-11.3 47.8-14.5 5-1 7.9-7 6.6-11.7z" fill="#FFFFFF" p-id="2332"></path></svg>