<?xml version="1.0" standalone="no"?><!DOCTYPE svg PUBLIC "-//W3C//DTD SVG 1.1//EN" "http://www.w3.org/Graphics/SVG/1.1/DTD/svg11.dtd"><svg t="1617936610024" class="icon" viewBox="0 0 1024 1024" version="1.1" xmlns="http://www.w3.org/2000/svg" p-id="1891" xmlns:xlink="http://www.w3.org/1999/xlink" width="200" height="200"><defs><style type="text/css"></style></defs><path d="M304.8 923.3s80.5-86.5-8.6-327S459.3 233 459.3 233C-57.4 336 304.8 923.3 304.8 923.3z" fill="#FFD3BC" p-id="1892"></path><path d="M301.7 920.5S414.4 885 455 631.6s320.9-236.1 320.9-236.1c-500.7-164.5-474.2 525-474.2 525z" fill="#FFD3BC" p-id="1893"></path><path d="M352.6 160c-9.8 9.1-16.8 20.2-21.5 33-5.8 15.7-6.5 32.6-3.4 48.8 3.5 18.4 13 35.2 25.1 49.4 10.9 12.9 25.1 24.1 40.8 30.3 8.6 3.4 17.3 5.5 26.5 5.8 9.1 0.3 18.4-1.7 26.9-5.1 16.6-6.7 34.7-18 39.9-36.1 2.3-7.6 1.1-15.9-2.3-22.9 30.7 2.4 63.1-6.1 83.9-29.6 25.6-29 24.9-74.9 1.4-105-12.7-16.3-29.7-27.9-49.4-34.5-19.4-6.8-40.3-7.1-60.4-3.4-43.6 8-78.5 37.4-107.5 69.3z" fill="#A4CE4E" p-id="1894"></path><path d="M484.5 263l19 0.1c-41.2-10.6-67.5-29.9-67.5-29.9 7.6 24.8 50.8 52.7 50.8 52.7 4.4-9.6-2.3-22.9-2.3-22.9z" fill="#3BA871" p-id="1895"></path><path d="M684.1 287.9c-16.1 1.7-31.3 7.4-45.2 16.3-17 10.9-30.1 26.9-39.1 44.9-10.2 20.5-13.3 43.7-12 66.4 1.1 20.4 6.7 41.8 17.4 59.3 5.8 9.6 12.6 18 21.4 25.1 8.6 6.9 19.1 12 29.9 14.9 20.9 5.7 46.9 7.9 65.3-5.8 7.8-5.7 12.7-14.6 14.7-23.9 28 25.1 65.8 40.6 103.3 33.1 46.3-9.3 79.3-54.4 78.6-100.9-0.3-25.3-8.5-49-22.5-69.9-14-20.8-34.1-36.5-56.3-47.7-48.3-24.4-103.8-21.4-155.5-11.8z" fill="#A4CE4E" p-id="1896"></path><path d="M736.6 484.9l18.3 14c-32.1-40.6-43.6-78.7-43.6-78.7-10.8 29.7 10.6 88.6 10.6 88.6 11.3-6.2 14.6-23.9 14.7-23.9z" fill="#3BA871" p-id="1897"></path></svg>